<svg version="1.1" id="Layer_1" xmlns="http://www.w3.org/2000/svg" xmlns:xlink="http://www.w3.org/1999/xlink" x="0px" y="0px"
	 width="100%" viewBox="0 0 486 439" enable-background="new 0 0 486 439" xml:space="preserve">
<path fill="currentColor" opacity="1.000000" stroke="currentColor" d="M327.539734,414.464172 
	C294.162231,370.783875 261.020538,327.372833 227.546005,283.525757 
	C219.686798,292.465668 211.947067,301.232147 204.247864,310.034058 
	C170.791504,348.282013 137.368958,386.559723 103.815155,424.721954 
	C102.516357,426.199158 100.005180,427.374603 98.047798,427.391388 
	C76.220589,427.578461 54.391178,427.509430 31.535347,427.509430 
	C86.155212,365.017120 140.327042,303.037384 194.768600,240.749054 
	C137.462662,165.807159 80.257553,90.997139 22.506037,15.472547 
	C24.611324,15.472547 26.002251,15.472479 27.393179,15.472556 
	C72.391029,15.475070 117.388969,15.511936 162.386566,15.406578 
	C165.548508,15.399176 167.453873,16.317850 169.374374,18.871868 
	C200.094604,59.725845 230.933624,100.490486 261.746704,141.274628 
	C263.142487,143.122086 264.548889,144.961548 266.259064,147.210770 
	C277.716278,134.095200 288.947571,121.248016 300.168243,108.391579 
	C326.132690,78.642036 352.118622,48.911148 378.006317,19.094957 
	C380.248260,16.512793 382.463287,15.343482 386.018036,15.379971 
	C405.848328,15.583522 425.681854,15.477349 445.514252,15.477066 
	C446.967316,15.477046 448.420380,15.477063 451.289490,15.477063 
	C399.853302,74.249977 349.269501,132.048920 298.540375,190.013947 
	C358.371948,269.072601 418.018219,347.886383 478.271515,427.502289 
	C475.700104,427.502289 474.110718,427.502289 472.521332,427.502258 
	C429.190033,427.501892 385.858551,427.450287 342.527740,427.592499 
	C338.813477,427.604675 336.333221,426.733978 334.352600,423.529358 
	C332.435394,420.427368 329.989319,417.652191 327.539734,414.464172 
M178.701950,98.808380 
	C168.462662,85.266708 158.254974,71.700821 147.933350,58.222195 
	C146.940765,56.926014 145.254456,55.323154 143.865311,55.299095 
	C130.955200,55.075455 118.039635,55.166828 104.419441,55.166828 
	C105.473320,56.702568 106.065010,57.652584 106.741348,58.537933 
	C187.675110,164.482635 268.697906,270.359619 349.370453,376.502838 
	C354.805939,383.654480 360.145996,386.861786 369.038635,386.012878 
	C377.504150,385.204712 386.107330,385.838806 395.554779,385.838806 
	C322.968079,289.765503 251.047211,194.573486 178.701950,98.808380 
z"/>
</svg>